<?xml version="1.0" encoding="utf-8"?>
<!-- Generator: Adobe Illustrator 21.0.2, SVG Export Plug-In . SVG Version: 6.00 Build 0)  -->
<svg version="1.1" id="Слой_1" xmlns="http://www.w3.org/2000/svg" xmlns:xlink="http://www.w3.org/1999/xlink" x="0px" y="0px"
	 viewBox="0 220 841.9 155" style="enable-background:new 0 220 841.9 155;" xml:space="preserve" class="logo__svg">
<style type="text/css">
	.st0{fill:#A8161A;}
	.text{fill: #ffffff}
</style>
<path class="text" id="YouDigital" d="M138.2,246.4h-22.7l-26.8,44.4l-26.7-44.4H37.7l38.6,64.2v35.6h23.1v-35.4L138.2,246.4z M174.3,347.3
	c24.4,0,42.1-16.4,42.1-39.5c0-23.1-17.7-39.5-42.1-39.5s-42.2,16.4-42.2,39.5C132.1,330.9,149.9,347.3,174.3,347.3z M174.3,329.1
	c-11.1,0-19.6-8-19.6-21.3c0-13.3,8.5-21.3,19.6-21.3c11.1,0,19.5,8,19.5,21.3C193.8,321.1,185.4,329.1,174.3,329.1L174.3,329.1z
	 M286.2,269.5v38c0,14.1-7.4,20.7-17.7,20.7c-9.8,0-15.5-5.7-15.5-18.6v-40.1h-22.2v43.4c0,23.6,13.6,34.5,32.8,34.5
	c9.4,0,18-3.6,23.9-10.3v9.2h21.2v-76.8H286.2L286.2,269.5z M330.8,346.2h45.3c32.7,0,55-19.6,55-50s-22.3-50-55-50h-45.3V346.2z
	 M353.9,327.2v-61.9H375c19.9,0,32.8,11.9,32.8,31c0,19.1-13,31-32.8,31H353.9z M447,346.2h22.2v-76.7H447V346.2L447,346.2z
	 M547.9,269.5v9.8c-5.8-7.4-14.7-11-25.4-11c-21.3,0-38.3,14.7-38.3,37.1c0,22.4,17.2,37.1,38.3,37.1c10,0,18.3-3.1,24.3-9.6v3.2
	c0,13.8-6.8,20.9-22.6,20.9c-9.8,0-20.5-3.5-27.1-8.7l-8.8,16c9,7,23.1,10.6,37.7,10.6c27.6,0,43.1-13.2,43.1-41.7v-63.8H547.9
	L547.9,269.5z M527,324.2c-11.7,0-20.3-7.6-20.3-18.8s8.6-18.9,20.3-18.9c11.7,0,20.1,7.6,20.1,18.8S538.6,324.2,527,324.2
	L527,324.2z M589.8,346.2H612v-76.7h-22.2V346.2L589.8,346.2z M676.1,326.8c-2.6,1.9-5.7,2.9-9,2.8c-6,0-9.6-3.6-9.6-10.1v-31.2
	h19.1v-17.1h-19.1v-18.8h-22.2v18.7h-11.9v17.2h11.9v31.5c0,18.2,10.6,27.5,28.7,27.5c6.8,0,13.6-1.6,18.1-4.9L676.1,326.8z
	 M725.7,268.3c-12.3,0-24.7,3.2-33.1,9.3l8,15.5c5.6-4.4,14-7.1,22.1-7.1c12,0,17.7,5.6,17.7,15.1h-17.7c-23.4,0-32.9,9.4-32.9,23
	c0,13.3,10.7,23.2,28.7,23.2c11.2,0,19.2-3.7,23.4-10.7v9.6h20.8v-43.8C762.6,279.2,749.1,268.3,725.7,268.3z M723.9,332.4
	c-7.9,0-12.5-3.7-12.5-9.3c0-5.2,3.2-9,13.7-9h15.2v7.9C737.8,328.9,731.4,332.4,723.9,332.4z M782.8,346.2H805V240.3h-22.2V346.2
	L782.8,346.2z"/>
<path id="Rounded_Rectangle_2" class="st0" d="M459.4,220.7h142.5c7.1,0,13,5.8,13,13l0,0c0,7.1-5.8,13-13,13H459.4
	c-7.1,0-13-5.8-13-13l0,0C446.5,226.5,452.3,220.7,459.4,220.7z"/>
</svg>
